<svg width="24" height="30" viewBox="0 0 24 30" fill="none" xmlns="http://www.w3.org/2000/svg">
<rect y="3" width="24" height="24" rx="8" fill="#D9D9D9"/>
<path d="M18.9297 22.3008C18.1484 22.9648 17.2773 23.4766 16.3164 23.8359C15.3555 24.1875 14.3555 24.3633 13.3164 24.3633C12.5195 24.3633 11.75 24.2578 11.0078 24.0469C10.2734 23.8438 9.58594 23.5547 8.94531 23.1797C8.30469 22.7969 7.71875 22.3438 7.1875 21.8203C6.65625 21.2891 6.20312 20.7031 5.82812 20.0625C5.45312 19.4141 5.16016 18.7188 4.94922 17.9766C4.74609 17.2344 4.64453 16.4648 4.64453 15.668C4.64453 14.8711 4.74609 14.1055 4.94922 13.3711C5.16016 12.6367 5.45312 11.9492 5.82812 11.3086C6.20312 10.6602 6.65625 10.0742 7.1875 9.55078C7.71875 9.01953 8.30469 8.56641 8.94531 8.19141C9.58594 7.81641 10.2734 7.52734 11.0078 7.32422C11.75 7.11328 12.5195 7.00781 13.3164 7.00781C14.3555 7.00781 15.3555 7.1875 16.3164 7.54688C17.2773 7.89844 18.1484 8.40625 18.9297 9.07031L17.1719 12C16.6641 11.4844 16.0781 11.082 15.4141 10.793C14.75 10.4961 14.0508 10.3477 13.3164 10.3477C12.582 10.3477 11.8906 10.4883 11.2422 10.7695C10.6016 11.0508 10.0391 11.4336 9.55469 11.918C9.07031 12.3945 8.6875 12.957 8.40625 13.6055C8.125 14.2461 7.98438 14.9336 7.98438 15.668C7.98438 16.4102 8.125 17.1055 8.40625 17.7539C8.6875 18.4023 9.07031 18.9688 9.55469 19.4531C10.0391 19.9375 10.6016 20.3203 11.2422 20.6016C11.8906 20.8828 12.582 21.0234 13.3164 21.0234C13.7383 21.0234 14.1484 20.9727 14.5469 20.8711C14.9453 20.7695 15.3242 20.6289 15.6836 20.4492V15.668H18.9297V22.3008Z" fill="#4D4DFF"/>
</svg>
