<svg width="130" height="24" viewBox="0 0 130 24" fill="none" xmlns="http://www.w3.org/2000/svg">
<path d="M14.9297 17.3008C14.1484 17.9648 13.2773 18.4766 12.3164 18.8359C11.3555 19.1875 10.3555 19.3633 9.31641 19.3633C8.51953 19.3633 7.75 19.2578 7.00781 19.0469C6.27344 18.8438 5.58594 18.5547 4.94531 18.1797C4.30469 17.7969 3.71875 17.3438 3.1875 16.8203C2.65625 16.2891 2.20312 15.7031 1.82812 15.0625C1.45312 14.4141 1.16016 13.7188 0.949219 12.9766C0.746094 12.2344 0.644531 11.4648 0.644531 10.668C0.644531 9.87109 0.746094 9.10547 0.949219 8.37109C1.16016 7.63672 1.45312 6.94922 1.82812 6.30859C2.20312 5.66016 2.65625 5.07422 3.1875 4.55078C3.71875 4.01953 4.30469 3.56641 4.94531 3.19141C5.58594 2.81641 6.27344 2.52734 7.00781 2.32422C7.75 2.11328 8.51953 2.00781 9.31641 2.00781C10.3555 2.00781 11.3555 2.1875 12.3164 2.54688C13.2773 2.89844 14.1484 3.40625 14.9297 4.07031L13.1719 7C12.6641 6.48438 12.0781 6.08203 11.4141 5.79297C10.75 5.49609 10.0508 5.34766 9.31641 5.34766C8.58203 5.34766 7.89062 5.48828 7.24219 5.76953C6.60156 6.05078 6.03906 6.43359 5.55469 6.91797C5.07031 7.39453 4.6875 7.95703 4.40625 8.60547C4.125 9.24609 3.98438 9.93359 3.98438 10.668C3.98438 11.4102 4.125 12.1055 4.40625 12.7539C4.6875 13.4023 5.07031 13.9688 5.55469 14.4531C6.03906 14.9375 6.60156 15.3203 7.24219 15.6016C7.89062 15.8828 8.58203 16.0234 9.31641 16.0234C9.73828 16.0234 10.1484 15.9727 10.5469 15.8711C10.9453 15.7695 11.3242 15.6289 11.6836 15.4492V10.668H14.9297V17.3008ZM29.332 19H28.5586L27.3164 17.2773C27.0117 17.5508 26.6875 17.8086 26.3438 18.0508C26.0078 18.2852 25.6523 18.4922 25.2773 18.6719C24.9023 18.8438 24.5156 18.9805 24.1172 19.082C23.7266 19.1836 23.3281 19.2344 22.9219 19.2344C22.0391 19.2344 21.207 19.0859 20.4258 18.7891C19.6523 18.4922 18.9727 18.0625 18.3867 17.5C17.8086 16.9297 17.3516 16.2344 17.0156 15.4141C16.6797 14.5938 16.5117 13.6602 16.5117 12.6133C16.5117 11.6367 16.6797 10.7422 17.0156 9.92969C17.3516 9.10938 17.8086 8.40625 18.3867 7.82031C18.9727 7.23438 19.6523 6.78125 20.4258 6.46094C21.207 6.13281 22.0391 5.96875 22.9219 5.96875C23.3281 5.96875 23.7305 6.01953 24.1289 6.12109C24.5273 6.22266 24.9141 6.36328 25.2891 6.54297C25.6641 6.72266 26.0195 6.93359 26.3555 7.17578C26.6992 7.41797 27.0195 7.67969 27.3164 7.96094L28.5586 6.47266H29.332V19ZM26.1094 12.6133C26.1094 12.1758 26.0234 11.7539 25.8516 11.3477C25.6875 10.9336 25.4609 10.5703 25.1719 10.2578C24.8828 9.9375 24.543 9.68359 24.1523 9.49609C23.7695 9.30078 23.3594 9.20312 22.9219 9.20312C22.4844 9.20312 22.0703 9.27734 21.6797 9.42578C21.2969 9.57422 20.9609 9.79297 20.6719 10.082C20.3906 10.3711 20.168 10.7305 20.0039 11.1602C19.8398 11.582 19.7578 12.0664 19.7578 12.6133C19.7578 13.1602 19.8398 13.6484 20.0039 14.0781C20.168 14.5 20.3906 14.8555 20.6719 15.1445C20.9609 15.4336 21.2969 15.6523 21.6797 15.8008C22.0703 15.9492 22.4844 16.0234 22.9219 16.0234C23.3594 16.0234 23.7695 15.9297 24.1523 15.7422C24.543 15.5469 24.8828 15.293 25.1719 14.9805C25.4609 14.6602 25.6875 14.2969 25.8516 13.8906C26.0234 13.4766 26.1094 13.0508 26.1094 12.6133ZM43.9102 19H43.1367L41.8945 17.2773C41.5898 17.5508 41.2656 17.8086 40.9219 18.0508C40.5859 18.2852 40.2305 18.4922 39.8555 18.6719C39.4805 18.8438 39.0938 18.9805 38.6953 19.082C38.3047 19.1836 37.9062 19.2344 37.5 19.2344C36.6172 19.2344 35.7852 19.0703 35.0039 18.7422C34.2305 18.4062 33.5508 17.9453 32.9648 17.3594C32.3867 16.7656 31.9297 16.0664 31.5938 15.2617C31.2578 14.4492 31.0898 13.5664 31.0898 12.6133C31.0898 11.668 31.2578 10.7891 31.5938 9.97656C31.9297 9.16406 32.3867 8.46094 32.9648 7.86719C33.5508 7.27344 34.2305 6.80859 35.0039 6.47266C35.7852 6.13672 36.6172 5.96875 37.5 5.96875C37.7812 5.96875 38.0703 5.99219 38.3672 6.03906C38.6719 6.08594 38.9648 6.16406 39.2461 6.27344C39.5352 6.375 39.8047 6.51172 40.0547 6.68359C40.3047 6.85547 40.5156 7.06641 40.6875 7.31641V1.45703H43.9102V19ZM40.6875 12.6133C40.6875 12.1758 40.6016 11.7539 40.4297 11.3477C40.2656 10.9336 40.0391 10.5703 39.75 10.2578C39.4609 9.9375 39.1211 9.68359 38.7305 9.49609C38.3477 9.30078 37.9375 9.20312 37.5 9.20312C37.0625 9.20312 36.6484 9.28125 36.2578 9.4375C35.875 9.59375 35.5391 9.82031 35.25 10.1172C34.9688 10.4062 34.7461 10.7617 34.582 11.1836C34.418 11.6055 34.3359 12.082 34.3359 12.6133C34.3359 13.0742 34.418 13.5117 34.582 13.9258C34.7461 14.3398 34.9688 14.7031 35.25 15.0156C35.5391 15.3281 35.875 15.5742 36.2578 15.7539C36.6484 15.9336 37.0625 16.0234 37.5 16.0234C37.9375 16.0234 38.3477 15.9297 38.7305 15.7422C39.1211 15.5469 39.4609 15.293 39.75 14.9805C40.0391 14.6602 40.2656 14.2969 40.4297 13.8906C40.6016 13.4766 40.6875 13.0508 40.6875 12.6133ZM55.2891 12.6133C55.2891 12.1758 55.2031 11.7539 55.0312 11.3477C54.8672 10.9336 54.6406 10.5703 54.3516 10.2578C54.0625 9.9375 53.7227 9.68359 53.332 9.49609C52.9492 9.30078 52.5391 9.20312 52.1016 9.20312C51.6641 9.20312 51.25 9.27734 50.8594 9.42578C50.4766 9.57422 50.1406 9.79297 49.8516 10.082C49.5703 10.3711 49.3477 10.7305 49.1836 11.1602C49.0195 11.582 48.9375 12.0664 48.9375 12.6133C48.9375 13.1367 49.0195 13.6094 49.1836 14.0312C49.3477 14.4453 49.5703 14.8008 49.8516 15.0977C50.1406 15.3945 50.4766 15.625 50.8594 15.7891C51.25 15.9453 51.6641 16.0234 52.1016 16.0234C52.5391 16.0234 52.9492 15.9297 53.332 15.7422C53.7227 15.5469 54.0625 15.293 54.3516 14.9805C54.6406 14.6602 54.8672 14.2969 55.0312 13.8906C55.2031 13.4766 55.2891 13.0508 55.2891 12.6133ZM58.5117 17.418C58.5117 18.3008 58.3438 19.1289 58.0078 19.9023C57.6719 20.6758 57.2109 21.3516 56.625 21.9297C56.0469 22.5078 55.3672 22.9648 54.5859 23.3008C53.8125 23.6367 52.9844 23.8047 52.1016 23.8047L50.4961 23.7812V20.582L52.0781 20.6055C52.5781 20.6055 53.0039 20.5391 53.3555 20.4062C53.707 20.2812 54.0039 20.1055 54.2461 19.8789C54.4883 19.6602 54.6797 19.4062 54.8203 19.1172C54.9688 18.8281 55.0859 18.5234 55.1719 18.2031C55.0469 18.4062 54.8672 18.5742 54.6328 18.707C54.3984 18.832 54.1367 18.9336 53.8477 19.0117C53.5664 19.0977 53.2695 19.1562 52.957 19.1875C52.6523 19.2188 52.3672 19.2344 52.1016 19.2344C51.2188 19.2344 50.3867 19.082 49.6055 18.7773C48.832 18.4727 48.1523 18.0391 47.5664 17.4766C46.9883 16.9062 46.5312 16.2109 46.1953 15.3906C45.8594 14.5703 45.6914 13.6445 45.6914 12.6133C45.6914 11.668 45.8594 10.7891 46.1953 9.97656C46.5312 9.16406 46.9883 8.46094 47.5664 7.86719C48.1523 7.27344 48.832 6.80859 49.6055 6.47266C50.3867 6.13672 51.2188 5.96875 52.1016 5.96875C52.5078 5.96875 52.9102 6.01953 53.3086 6.12109C53.707 6.22266 54.0938 6.36328 54.4688 6.54297C54.8438 6.72266 55.1992 6.93359 55.5352 7.17578C55.8789 7.41797 56.1992 7.67969 56.4961 7.96094L57.7383 6.47266H58.5117V17.418ZM65.9531 15.9297C66.0781 15.9688 66.2031 15.9961 66.3281 16.0117C66.4531 16.0195 66.5781 16.0234 66.7031 16.0234C67.0156 16.0234 67.3164 15.9805 67.6055 15.8945C67.8945 15.8086 68.1641 15.6875 68.4141 15.5312C68.6719 15.3672 68.8984 15.1719 69.0938 14.9453C69.2969 14.7109 69.4609 14.4531 69.5859 14.1719L71.9297 16.5273C71.6328 16.9492 71.2891 17.3281 70.8984 17.6641C70.5156 18 70.0977 18.2852 69.6445 18.5195C69.1992 18.7539 68.7266 18.9297 68.2266 19.0469C67.7344 19.1719 67.2266 19.2344 66.7031 19.2344C65.8203 19.2344 64.9883 19.0703 64.207 18.7422C63.4336 18.4141 62.7539 17.957 62.168 17.3711C61.5898 16.7852 61.1328 16.0898 60.7969 15.2852C60.4609 14.4727 60.293 13.582 60.293 12.6133C60.293 11.6211 60.4609 10.7148 60.7969 9.89453C61.1328 9.07422 61.5898 8.375 62.168 7.79688C62.7539 7.21875 63.4336 6.76953 64.207 6.44922C64.9883 6.12891 65.8203 5.96875 66.7031 5.96875C67.2266 5.96875 67.7383 6.03125 68.2383 6.15625C68.7383 6.28125 69.2109 6.46094 69.6562 6.69531C70.1094 6.92969 70.5312 7.21875 70.9219 7.5625C71.3125 7.89844 71.6562 8.27734 71.9531 8.69922L65.9531 15.9297ZM67.5938 9.33203C67.4453 9.27734 67.2969 9.24219 67.1484 9.22656C67.0078 9.21094 66.8594 9.20312 66.7031 9.20312C66.2656 9.20312 65.8516 9.28516 65.4609 9.44922C65.0781 9.60547 64.7422 9.83203 64.4531 10.1289C64.1719 10.4258 63.9492 10.7852 63.7852 11.207C63.6211 11.6211 63.5391 12.0898 63.5391 12.6133C63.5391 12.7305 63.543 12.8633 63.5508 13.0117C63.5664 13.1602 63.5859 13.3125 63.6094 13.4688C63.6406 13.6172 63.6758 13.7617 63.7148 13.9023C63.7539 14.043 63.8047 14.168 63.8672 14.2773L67.5938 9.33203ZM79.8633 19C79.0898 19 78.3633 18.8555 77.6836 18.5664C77.0039 18.2695 76.4062 17.8672 75.8906 17.3594C75.3828 16.8438 74.9805 16.2461 74.6836 15.5664C74.3945 14.8867 74.25 14.1602 74.25 13.3867V9.66016H72.6914V6.47266H74.25V1.45703H77.4375V6.47266H82.2891V9.66016H77.4375V13.3867C77.4375 13.7227 77.5 14.0391 77.625 14.3359C77.75 14.625 77.9219 14.8789 78.1406 15.0977C78.3594 15.3164 78.6172 15.4922 78.9141 15.625C79.2109 15.75 79.5273 15.8125 79.8633 15.8125H82.2891V19H79.8633ZM87.7969 19H84.4336V2.19531H87.7969V8.92188H94.5117V2.19531H97.875V19H94.5117V12.2852H87.7969V19ZM104.438 3.03906C104.438 3.33594 104.379 3.61328 104.262 3.87109C104.152 4.12891 104 4.35547 103.805 4.55078C103.609 4.73828 103.379 4.89062 103.113 5.00781C102.855 5.11719 102.578 5.17188 102.281 5.17188C101.984 5.17188 101.703 5.11719 101.438 5.00781C101.18 4.89062 100.953 4.73828 100.758 4.55078C100.57 4.35547 100.418 4.12891 100.301 3.87109C100.191 3.61328 100.137 3.33594 100.137 3.03906C100.137 2.75 100.191 2.47656 100.301 2.21875C100.418 1.95312 100.57 1.72656 100.758 1.53906C100.953 1.34375 101.18 1.19141 101.438 1.08203C101.703 0.964844 101.984 0.90625 102.281 0.90625C102.578 0.90625 102.855 0.964844 103.113 1.08203C103.379 1.19141 103.609 1.34375 103.805 1.53906C104 1.72656 104.152 1.95312 104.262 2.21875C104.379 2.47656 104.438 2.75 104.438 3.03906ZM103.887 19H100.664V6.44922H103.887V19ZM109.898 19L105.117 6.44922H108.762L111.504 14.2773L114.234 6.44922H117.891L113.109 19H109.898ZM123.727 15.9297C123.852 15.9688 123.977 15.9961 124.102 16.0117C124.227 16.0195 124.352 16.0234 124.477 16.0234C124.789 16.0234 125.09 15.9805 125.379 15.8945C125.668 15.8086 125.938 15.6875 126.188 15.5312C126.445 15.3672 126.672 15.1719 126.867 14.9453C127.07 14.7109 127.234 14.4531 127.359 14.1719L129.703 16.5273C129.406 16.9492 129.062 17.3281 128.672 17.6641C128.289 18 127.871 18.2852 127.418 18.5195C126.973 18.7539 126.5 18.9297 126 19.0469C125.508 19.1719 125 19.2344 124.477 19.2344C123.594 19.2344 122.762 19.0703 121.98 18.7422C121.207 18.4141 120.527 17.957 119.941 17.3711C119.363 16.7852 118.906 16.0898 118.57 15.2852C118.234 14.4727 118.066 13.582 118.066 12.6133C118.066 11.6211 118.234 10.7148 118.57 9.89453C118.906 9.07422 119.363 8.375 119.941 7.79688C120.527 7.21875 121.207 6.76953 121.98 6.44922C122.762 6.12891 123.594 5.96875 124.477 5.96875C125 5.96875 125.512 6.03125 126.012 6.15625C126.512 6.28125 126.984 6.46094 127.43 6.69531C127.883 6.92969 128.305 7.21875 128.695 7.5625C129.086 7.89844 129.43 8.27734 129.727 8.69922L123.727 15.9297ZM125.367 9.33203C125.219 9.27734 125.07 9.24219 124.922 9.22656C124.781 9.21094 124.633 9.20312 124.477 9.20312C124.039 9.20312 123.625 9.28516 123.234 9.44922C122.852 9.60547 122.516 9.83203 122.227 10.1289C121.945 10.4258 121.723 10.7852 121.559 11.207C121.395 11.6211 121.312 12.0898 121.312 12.6133C121.312 12.7305 121.316 12.8633 121.324 13.0117C121.34 13.1602 121.359 13.3125 121.383 13.4688C121.414 13.6172 121.449 13.7617 121.488 13.9023C121.527 14.043 121.578 14.168 121.641 14.2773L125.367 9.33203Z" fill="#4D4DFF"/>
</svg>
